<?xml version="1.0" encoding="UTF-8" standalone="no"?>
<svg width="800" height="600" xmlns="http://www.w3.org/2000/svg">
    <style>
        .title { font: bold 20px sans-serif; fill: #333; }
        .subtitle { font: 14px sans-serif; fill: #666; }
        .box { stroke: #2c3e50; stroke-width: 2; rx: 5; ry: 5; }
        .blue-box { fill: #3498db; }
        .green-box { fill: #2ecc71; }
        .orange-box { fill: #e67e22; }
        .red-box { fill: #e74c3c; }
        .purple-box { fill: #9b59b6; }
        .yellow-box { fill: #f1c40f; }
        .box-title { font: bold 12px sans-serif; fill: white; }
        .box-text { font: 10px sans-serif; fill: white; }
        .arrow { stroke: #7f8c8d; stroke-width: 2; marker-end: url(#arrowhead); }
        .arrow-text { font: 10px sans-serif; fill: #7f8c8d; }
    </style>
    
    <defs>
        <marker id="arrowhead" markerWidth="10" markerHeight="7" refX="9" refY="3.5" orient="auto">
            <polygon points="0 0, 10 3.5, 0 7" fill="#7f8c8d" />
        </marker>
    </defs>
    
    <!-- Title -->
    <text x="400" y="30" text-anchor="middle" class="title">Enterprise SOC SIEM Architecture</text>
    
    <!-- Log Sources -->
    <rect x="50" y="80" width="150" height="120" class="box blue-box" />
    <text x="125" y="100" text-anchor="middle" class="box-title">LOG SOURCES</text>
    <text x="125" y="120" text-anchor="middle" class="box-text">Windows Event Logs</text>
    <text x="125" y="135" text-anchor="middle" class="box-text">Sysmon</text>
    <text x="125" y="150" text-anchor="middle" class="box-text">Firewall Logs</text>
    <text x="125" y="165" text-anchor="middle" class="box-text">Zeek Network Logs</text>
    <text x="125" y="180" text-anchor="middle" class="box-text">Cloud API Logs</text>
    
    <!-- Log Collection -->
    <rect x="250" y="80" width="150" height="120" class="box green-box" />
    <text x="325" y="100" text-anchor="middle" class="box-title">LOG COLLECTION</text>
    <text x="325" y="120" text-anchor="middle" class="box-text">Filebeat</text>
    <text x="325" y="135" text-anchor="middle" class="box-text">Winlogbeat</text>
    <text x="325" y="150" text-anchor="middle" class="box-text">Auditbeat</text>
    <text x="325" y="165" text-anchor="middle" class="box-text">Packetbeat</text>
    
    <!-- Processing -->
    <rect x="450" y="80" width="150" height="120" class="box orange-box" />
    <text x="525" y="100" text-anchor="middle" class="box-title">LOG PROCESSING</text>
    <text x="525" y="120" text-anchor="middle" class="box-text">Logstash</text>
    <text x="525" y="135" text-anchor="middle" class="box-text">Ingest Pipelines</text>
    <text x="525" y="150" text-anchor="middle" class="box-text">Normalization</text>
    <text x="525" y="165" text-anchor="middle" class="box-text">Enrichment</text>
    
    <!-- Storage -->
    <rect x="650" y="80" width="100" height="120" class="box purple-box" />
    <text x="700" y="100" text-anchor="middle" class="box-title">STORAGE</text>
    <text x="700" y="120" text-anchor="middle" class="box-text">Elasticsearch</text>
    <text x="700" y="135" text-anchor="middle" class="box-text">Indices</text>
    <text x="700" y="150" text-anchor="middle" class="box-text">Templates</text>
    <text x="700" y="165" text-anchor="middle" class="box-text">ILM Policies</text>
    
    <!-- Detection & Analytics -->
    <rect x="250" y="250" width="350" height="100" class="box red-box" />
    <text x="425" y="270" text-anchor="middle" class="box-title">DETECTION & ANALYTICS</text>
    <text x="325" y="290" text-anchor="middle" class="box-text">Sigma Rules</text>
    <text x="325" y="305" text-anchor="middle" class="box-text">YARA Rules</text>
    <text x="425" y="290" text-anchor="middle" class="box-text">ML Models</text>
    <text x="425" y="305" text-anchor="middle" class="box-text">UEBA</text>
    <text x="525" y="290" text-anchor="middle" class="box-text">MITRE Mapping</text>
    <text x="525" y="305" text-anchor="middle" class="box-text">Threat Intel</text>
    
    <!-- Visualization & Alerting -->
    <rect x="50" y="250" width="150" height="100" class="box yellow-box" />
    <text x="125" y="270" text-anchor="middle" class="box-title">VISUALIZATION</text>
    <text x="125" y="290" text-anchor="middle" class="box-text">Kibana</text>
    <text x="125" y="305" text-anchor="middle" class="box-text">Dashboards</text>
    <text x="125" y="320" text-anchor="middle" class="box-text">Wazuh UI</text>
    
    <!-- Response Automation -->
    <rect x="250" y="400" width="350" height="100" class="box green-box" />
    <text x="425" y="420" text-anchor="middle" class="box-title">INCIDENT RESPONSE AUTOMATION</text>
    <text x="350" y="440" text-anchor="middle" class="box-text">Shuffle SOAR</text>
    <text x="500" y="440" text-anchor="middle" class="box-text">Response Playbooks</text>
    <text x="350" y="455" text-anchor="middle" class="box-text">Case Management</text>
    <text x="500" y="455" text-anchor="middle" class="box-text">Integration APIs</text>
    
    <!-- Arrows -->
    <line x1="200" y1="140" x2="250" y2="140" class="arrow" />
    <line x1="400" y1="140" x2="450" y2="140" class="arrow" />
    <line x1="600" y1="140" x2="650" y2="140" class="arrow" />
    <line x1="700" y1="200" x2="700" y2="250" class="arrow" />
    <line x1="650" y1="300" x2="600" y2="300" class="arrow" />
    <line x1="250" y1="300" x2="200" y2="300" class="arrow" />
    <line x1="425" y1="350" x2="425" y2="400" class="arrow" />
    <line x1="125" y1="350" x2="125" y2="430" class="arrow" />
    <line x1="125" y1="430" x2="250" y2="430" class="arrow" />
    
    <!-- Legend -->
    <rect x="50" y="550" width="15" height="15" class="box blue-box" />
    <text x="70" y="563" class="subtitle">Log Sources</text>
    
    <rect x="150" y="550" width="15" height="15" class="box green-box" />
    <text x="170" y="563" class="subtitle">Collection & Response</text>
    
    <rect x="350" y="550" width="15" height="15" class="box orange-box" />
    <text x="370" y="563" class="subtitle">Processing</text>
    
    <rect x="450" y="550" width="15" height="15" class="box purple-box" />
    <text x="470" y="563" class="subtitle">Storage</text>
    
    <rect x="550" y="550" width="15" height="15" class="box red-box" />
    <text x="570" y="563" class="subtitle">Detection</text>
    
    <rect x="650" y="550" width="15" height="15" class="box yellow-box" />
    <text x="670" y="563" class="subtitle">Visualization</text>
</svg> 