<?xml version="1.0" encoding="UTF-8" standalone="no"?>
<svg width="800" height="400" xmlns="http://www.w3.org/2000/svg">
    <style>
        .bg { fill: #1d2733; }
        .panel { fill: #2c3e50; stroke: #34495e; stroke-width: 1; rx: 3; ry: 3; }
        .title { font: bold 12px sans-serif; fill: #ecf0f1; }
        .subtitle { font: 10px sans-serif; fill: #bdc3c7; }
        .axis { stroke: #7f8c8d; stroke-width: 1; }
        .grid { stroke: #2c3e50; stroke-width: 1; stroke-dasharray: 2,2; }
        .data-line { stroke: #2ecc71; stroke-width: 2; fill: none; }
        .data-line-2 { stroke: #e74c3c; stroke-width: 2; fill: none; }
        .data-line-3 { stroke: #3498db; stroke-width: 2; fill: none; }
        .data-area { fill: #2ecc71; fill-opacity: 0.1; }
        .data-area-2 { fill: #e74c3c; fill-opacity: 0.1; }
        .data-area-3 { fill: #3498db; fill-opacity: 0.1; }
        .data-point { fill: #2ecc71; stroke: #27ae60; stroke-width: 1; }
        .data-point-2 { fill: #e74c3c; stroke: #c0392b; stroke-width: 1; }
        .data-point-3 { fill: #3498db; stroke: #2980b9; stroke-width: 1; }
        .bar { fill: #3498db; }
        .bar-2 { fill: #e74c3c; }
        .legend-box { fill: #34495e; stroke: #7f8c8d; stroke-width: 1; rx: 2; ry: 2; }
        .legend-text { font: 8px sans-serif; fill: #ecf0f1; }
        .table-header { font: bold 8px sans-serif; fill: #ecf0f1; }
        .table-row { font: 8px sans-serif; fill: #bdc3c7; }
        .table-line { stroke: #7f8c8d; stroke-width: 0.5; }
        .value-high { fill: #e74c3c; }
        .value-medium { fill: #f1c40f; }
        .value-low { fill: #2ecc71; }
        .header { fill: #34495e; }
    </style>
  
    <!-- Background -->
    <rect width="100%" height="100%" class="bg" />
    
    <!-- Header -->
    <rect x="0" y="0" width="800" height="40" class="header" />
    <text x="20" y="25" class="title">Enterprise SOC SIEM Dashboard</text>
    <text x="780" y="25" text-anchor="end" class="subtitle">Last updated: 2023-07-15 14:30</text>
    
    <!-- Top Row Panels -->
    <!-- Security Events Summary -->
    <rect x="20" y="50" width="180" height="100" class="panel" />
    <text x="30" y="70" class="title">Security Events (24h)</text>
    <text x="30" y="90" class="title" style="font-size: 24px; fill: #e74c3c;">1,287</text>
    <text x="30" y="110" class="subtitle">+12% from yesterday</text>
    <line x1="30" y1="120" x2="170" y2="120" class="axis" />
    <polyline points="30,135 50,130 70,132 90,125 110,140 130,120 150,130 170,125" class="data-line-2" />
    
    <!-- Critical Alerts -->
    <rect x="210" y="50" width="180" height="100" class="panel" />
    <text x="220" y="70" class="title">Critical Alerts</text>
    <text x="220" y="90" class="title" style="font-size: 24px; fill: #f1c40f;">42</text>
    <text x="220" y="110" class="subtitle">8 require attention</text>
    <line x1="220" y1="120" x2="360" y2="120" class="axis" />
    <polyline points="220,135 240,130 260,125 280,133 300,120 320,125 340,122 360,127" class="data-line-3" />
    
    <!-- Active Incidents -->
    <rect x="400" y="50" width="180" height="100" class="panel" />
    <text x="410" y="70" class="title">Active Incidents</text>
    <text x="410" y="90" class="title" style="font-size: 24px; fill: #2ecc71;">7</text>
    <text x="410" y="110" class="subtitle">Oldest: 3h 24m</text>
    <line x1="410" y1="120" x2="550" y2="120" class="axis" />
    <polyline points="410,130 430,125 450,135 470,125 490,132 510,130 530,127 550,129" class="data-line" />
    
    <!-- MITRE Coverage -->
    <rect x="590" y="50" width="190" height="100" class="panel" />
    <text x="600" y="70" class="title">MITRE ATT&CK Coverage</text>
    <circle cx="685" cy="100" r="35" stroke="#34495e" stroke-width="10" fill="none" />
    <circle cx="685" cy="100" r="35" stroke="#f1c40f" stroke-width="10" fill="none" stroke-dasharray="164 56" />
    <text x="685" y="105" text-anchor="middle" class="title" style="font-size: 20px; fill: #f1c40f;">74%</text>
    
    <!-- Middle Row Panels -->
    <!-- Event Timeline -->
    <rect x="20" y="160" width="570" height="110" class="panel" />
    <text x="30" y="180" class="title">Security Event Timeline</text>
    
    <!-- Grid -->
    <line x1="30" y1="200" x2="560" y2="200" class="axis" />
    <line x1="30" y1="250" x2="560" y2="250" class="axis" />
    <line x1="30" y1="200" x2="30" y2="250" class="axis" />
    
    <line x1="105" y1="200" x2="105" y2="250" class="grid" />
    <line x1="180" y1="200" x2="180" y2="250" class="grid" />
    <line x1="255" y1="200" x2="255" y2="250" class="grid" />
    <line x1="330" y1="200" x2="330" y2="250" class="grid" />
    <line x1="405" y1="200" x2="405" y2="250" class="grid" />
    <line x1="480" y1="200" x2="480" y2="250" class="grid" />
    <line x1="560" y1="200" x2="560" y2="250" class="axis" />
    
    <!-- X-axis labels -->
    <text x="30" y="265" text-anchor="middle" class="subtitle">00:00</text>
    <text x="105" y="265" text-anchor="middle" class="subtitle">04:00</text>
    <text x="180" y="265" text-anchor="middle" class="subtitle">08:00</text>
    <text x="255" y="265" text-anchor="middle" class="subtitle">12:00</text>
    <text x="330" y="265" text-anchor="middle" class="subtitle">16:00</text>
    <text x="405" y="265" text-anchor="middle" class="subtitle">20:00</text>
    <text x="480" y="265" text-anchor="middle" class="subtitle">23:59</text>
    
    <!-- Data visualization -->
    <polyline points="30,240 70,235 85,215 110,245 140,230 180,242 220,220 240,235 255,225 300,240 330,238 350,210 385,245 405,230 440,228 480,245 510,210 560,232" class="data-line" />
    <polyline points="30,245 65,240 85,238 115,242 150,239 170,244 190,238 230,246 255,242 285,235 310,245 350,240 385,247 420,238 450,241 480,237 510,242 560,243" class="data-line-3" />
    
    <circle cx="85" cy="215" r="3" class="data-point" />
    <circle cx="220" cy="220" r="3" class="data-point" />
    <circle cx="350" cy="210" r="3" class="data-point" />
    <circle cx="510" cy="210" r="3" class="data-point" />
    
    <!-- Legend -->
    <rect x="200" y="200" width="100" height="30" class="legend-box" />
    <circle cx="210" cy="210" r="3" class="data-point" />
    <text x="220" y="213" class="legend-text">Alerts</text>
    <circle cx="210" cy="225" r="3" class="data-point-3" />
    <text x="220" y="228" class="legend-text">Baseline</text>
    
    <!-- MITRE Heat Map -->
    <rect x="600" y="160" width="180" height="110" class="panel" />
    <text x="610" y="180" class="title">MITRE Tactics Coverage</text>
    
    <!-- Heat map grid -->
    <rect x="610" y="190" width="30" height="12" style="fill: #e74c3c; opacity: 0.8;" />
    <rect x="610" y="205" width="30" height="12" style="fill: #e74c3c; opacity: 0.5;" />
    <rect x="610" y="220" width="30" height="12" style="fill: #f1c40f; opacity: 0.8;" />
    <rect x="610" y="235" width="30" height="12" style="fill: #2ecc71; opacity: 0.8;" />
    <rect x="610" y="250" width="30" height="12" style="fill: #2ecc71; opacity: 0.5;" />
    
    <rect x="645" y="190" width="30" height="12" style="fill: #e74c3c; opacity: 0.6;" />
    <rect x="645" y="205" width="30" height="12" style="fill: #f1c40f; opacity: 0.7;" />
    <rect x="645" y="220" width="30" height="12" style="fill: #f1c40f; opacity: 0.6;" />
    <rect x="645" y="235" width="30" height="12" style="fill: #f1c40f; opacity: 0.5;" />
    <rect x="645" y="250" width="30" height="12" style="fill: #2ecc71; opacity: 0.7;" />
    
    <rect x="680" y="190" width="30" height="12" style="fill: #f1c40f; opacity: 0.8;" />
    <rect x="680" y="205" width="30" height="12" style="fill: #f1c40f; opacity: 0.7;" />
    <rect x="680" y="220" width="30" height="12" style="fill: #e74c3c; opacity: 0.7;" />
    <rect x="680" y="235" width="30" height="12" style="fill: #f1c40f; opacity: 0.6;" />
    <rect x="680" y="250" width="30" height="12" style="fill: #e74c3c; opacity: 0.5;" />
    
    <rect x="715" y="190" width="30" height="12" style="fill: #2ecc71; opacity: 0.8;" />
    <rect x="715" y="205" width="30" height="12" style="fill: #f1c40f; opacity: 0.6;" />
    <rect x="715" y="220" width="30" height="12" style="fill: #2ecc71; opacity: 0.7;" />
    <rect x="715" y="235" width="30" height="12" style="fill: #e74c3c; opacity: 0.6;" />
    <rect x="715" y="250" width="30" height="12" style="fill: #f1c40f; opacity: 0.8;" />
    
    <text x="610" y="188" class="subtitle" style="font-size: 6px;">Initial Access</text>
    <text x="610" y="203" class="subtitle" style="font-size: 6px;">Execution</text>
    <text x="610" y="218" class="subtitle" style="font-size: 6px;">Persistence</text>
    <text x="610" y="233" class="subtitle" style="font-size: 6px;">Priv Escalation</text>
    <text x="610" y="248" class="subtitle" style="font-size: 6px;">Defense Evasion</text>
    
    <!-- Bottom Row Panels -->
    <!-- Recent Alerts -->
    <rect x="20" y="280" width="370" height="110" class="panel" />
    <text x="30" y="300" class="title">Recent Critical Alerts</text>
    
    <!-- Table header -->
    <line x1="30" y1="310" x2="360" y2="310" class="table-line" />
    <text x="35" y="308" class="table-header">Timestamp</text>
    <text x="120" y="308" class="table-header">Event Type</text>
    <text x="240" y="308" class="table-header">Source</text>
    <text x="310" y="308" class="table-header">Severity</text>
    
    <!-- Table rows -->
    <line x1="30" y1="320" x2="360" y2="320" class="table-line" />
    <text x="35" y="330" class="table-row">2023-07-15 14:22:10</text>
    <text x="120" y="330" class="table-row">Multiple Failed Logins</text>
    <text x="240" y="330" class="table-row">192.168.1.105</text>
    <text x="310" y="330" class="table-row value-high">High</text>
    
    <line x1="30" y1="335" x2="360" y2="335" class="table-line" />
    <text x="35" y="345" class="table-row">2023-07-15 14:15:37</text>
    <text x="120" y="345" class="table-row">Suspicious PowerShell</text>
    <text x="240" y="345" class="table-row">WS-ADMIN-15</text>
    <text x="310" y="345" class="table-row value-high">High</text>
    
    <line x1="30" y1="350" x2="360" y2="350" class="table-line" />
    <text x="35" y="360" class="table-row">2023-07-15 14:08:22</text>
    <text x="120" y="360" class="table-row">Unusual Network Traffic</text>
    <text x="240" y="360" class="table-row">10.0.0.34</text>
    <text x="310" y="360" class="table-row value-medium">Medium</text>
    
    <line x1="30" y1="365" x2="360" y2="365" class="table-line" />
    <text x="35" y="375" class="table-row">2023-07-15 13:52:11</text>
    <text x="120" y="375" class="table-row">Malware Detection</text>
    <text x="240" y="375" class="table-row">WS-DEV-02</text>
    <text x="310" y="375" class="table-row value-high">High</text>
    
    <line x1="30" y1="380" x2="360" y2="380" class="table-line" />
    
    <!-- Top Threats Panel -->
    <rect x="400" y="280" width="380" height="110" class="panel" />
    <text x="410" y="300" class="title">Top Threat Categories</text>
    
    <!-- Bar Chart -->
    <line x1="430" y1="320" x2="430" y2="370" class="axis" />
    <line x1="430" y1="370" x2="750" y2="370" class="axis" />
    
    <!-- Bars -->
    <rect x="440" y="325" width="180" height="10" class="bar" />
    <rect x="440" y="340" width="140" height="10" class="bar" />
    <rect x="440" y="355" width="110" height="10" class="bar-2" />
    
    <!-- Labels -->
    <text x="425" y="330" text-anchor="end" class="table-row">Brute Force</text>
    <text x="425" y="345" text-anchor="end" class="table-row">Malware</text>
    <text x="425" y="360" text-anchor="end" class="table-row">Data Exfil</text>
    
    <!-- Values -->
    <text x="630" y="330" class="table-row">36 events</text>
    <text x="590" y="345" class="table-row">28 events</text>
    <text x="560" y="360" class="table-row">22 events</text>
</svg> 